Coordinates
version=1
nRows=16
nColumns=22
inDegrees=yes

Units are S.I. units (second, meters, Newtons, ...)
If the header above contains a line with 'inDegrees', this indicates whether rotational values are in degrees (yes) or radians (no).

endheader
time	pelvis_tilt	pelvis_list	pelvis_rotation	pelvis_tx	pelvis_ty	pelvis_tz	hip_flexion_r	hip_adduction_r	hip_rotation_r	knee_angle_r	ankle_angle_r	subtalar_angle_r	hip_flexion_l	hip_adduction_l	hip_rotation_l	knee_angle_l	ankle_angle_l	subtalar_angle_l	lumbar_extension	lumbar_bending	lumbar_rotation
      0.01000000	     -3.00561017	     -8.06763526	      4.05029381	     -1.06755338	      0.97804451	     -0.26626168	      6.01475095	      7.94219624	     -3.65431437	    -14.33839836	      7.68446540	     -4.74882940	      3.54064368	     -8.40708513	      6.11630514	     -8.63039706	     11.26237406	     -1.26250705	      2.25118681	      7.66892213	     -6.92579589
      0.02000000	     -2.94287247	     -7.85026290	      4.08005248	     -1.06734939	      0.97786902	     -0.26648356	      5.97081611	      7.70215831	     -4.30609224	    -14.55324087	      8.34414695	     -3.64924226	      3.42422484	     -8.16239228	      6.16514838	     -8.59697123	     11.28145018	     -1.28541562	      2.20082283	      7.43852769	     -6.95076559
      0.03000000	     -2.91950460	     -7.66206175	      4.08162969	     -1.06718982	      0.97766695	     -0.26666718	      5.95894513	      7.49399005	     -4.82445411	    -14.74011863	      8.96512997	     -2.50599926	      3.37201178	     -7.94681741	      6.16155419	     -8.60053514	     11.29416400	     -1.31085923	      2.19074929	      7.24068738	     -6.95424730
      0.04000000	     -2.89514847	     -7.51158922	      4.07848914	     -1.06704861	      0.97750877	     -0.26682490	      5.93488609	      7.32887690	     -5.21877644	    -14.87839054	      9.44913829	     -1.61895634	      3.32733053	     -7.77356882	      6.15172381	     -8.61263056	     11.32135281	     -1.33325163	      2.17935551	      7.08377253	     -6.96149117
      0.05000000	     -2.87522649	     -7.40863098	      4.06960395	     -1.06693264	      0.97739782	     -0.26695547	      5.91051938	      7.21576013	     -5.48066704	    -14.97152181	      9.78430252	     -1.01678034	      3.29684822	     -7.65310396	      6.13837024	     -8.63231583	     11.34274238	     -1.35111607	      2.17314441	      6.97954777	     -6.96395382
      0.06000000	     -2.85907425	     -7.34458033	      4.05631379	     -1.06683853	      0.97733237	     -0.26705923	      5.88513666	      7.14586399	     -5.62455963	    -15.02289144	      9.99087646	     -0.63849259	      3.27592840	     -7.57629691	      6.12071801	     -8.65371123	     11.36078286	     -1.36801079	      2.16970461	      6.91793914	     -6.96539024
      0.07000000	     -2.85022266	     -7.32637842	      4.04108031	     -1.06674892	      0.97729586	     -0.26711788	      5.85718597	      7.13108928	     -5.68204934	    -15.02574469	     10.07076973	     -0.60813222	      3.27123431	     -7.55241738	      6.09204670	     -8.68174561	     11.38643442	     -1.37624396	      2.17661894	      6.90263411	     -6.95814195
      0.08000000	     -2.83101236	     -7.30942018	      4.02392918	     -1.06672799	      0.97729954	     -0.26718384	      5.84335027	      7.11366689	     -5.66780645	    -15.05497001	     10.11671076	     -0.55091038	      3.26193999	     -7.52844666	      6.07848089	     -8.71618416	     11.39508862	     -1.38563722	      2.15876372	      6.89320158	     -6.97392272
      0.09000000	     -2.82886030	     -7.31013742	      4.01433344	     -1.06666150	      0.97730307	     -0.26724632	      5.83703559	      7.11025814	     -5.66603926	    -15.05668090	     10.11668288	     -0.54774759	      3.25667574	     -7.52505132	      6.07950985	     -8.72260443	     11.39425121	     -1.38612796	      2.16956744	      6.89958429	     -6.97494486
      0.10000000	     -2.81944803	     -7.32152134	      3.96544414	     -1.06660151	      0.97733513	     -0.26724439	      5.80580370	      7.12830407	     -5.55208438	    -15.02437063	     10.10084943	     -0.47227041	      3.24075773	     -7.53742309	      6.01499792	     -8.73521077	     11.39285907	     -1.41244624	      2.16290083	      6.92037576	     -6.94122333
      0.11000000	     -2.81178995	     -7.32614314	      3.94869790	     -1.06657537	      0.97735444	     -0.26728008	      5.80632734	      7.12875710	     -5.52303809	    -15.03811400	     10.08982672	     -0.46674162	      3.23063027	     -7.54029762	      6.00904536	     -8.74127836	     11.38829159	     -1.41661343	      2.15601766	      6.93265481	     -6.95544974
      0.12000000	     -2.80496476	     -7.34442422	      3.90796907	     -1.06651387	      0.97738352	     -0.26725632	      5.78556585	      7.15373272	     -5.43557624	    -15.01546959	     10.05582040	     -0.46597199	      3.21364821	     -7.56257342	      5.95296921	     -8.74308820	     11.38132755	     -1.44011581	      2.15291979	      6.95712989	     -6.92382276
      0.13000000	     -2.80390377	     -7.34589591	      3.89523293	     -1.06647123	      0.97739010	     -0.26726929	      5.78479989	      7.15140601	     -5.43235056	    -15.01736862	     10.05382147	     -0.46697200	      3.20869764	     -7.56325687	      5.95289620	     -8.74728121	     11.38050881	     -1.44102860	      2.15527336	      6.96093440	     -6.92883289
      0.14000000	     -2.80349383	     -7.35964268	      3.84772529	     -1.06643590	      0.97740346	     -0.26720941	      5.77907083	      7.17329510	     -5.35627907	    -15.00855353	     10.02168839	     -0.49667617	      3.19391751	     -7.58259619	      5.89115644	     -8.74064671	     11.37432849	     -1.46430969	      2.15090672	      6.97894660	     -6.90344137
      0.15000000	     -2.80442049	     -7.35993748	      3.83551400	     -1.06640466	      0.97740212	     -0.26720254	      5.77864111	      7.17240685	     -5.35680535	    -15.00782157	     10.02140281	     -0.49811473	      3.19058345	     -7.58283499	      5.89172968	     -8.74269788	     11.37464821	     -1.46495732	      2.15200843	      6.97982224	     -6.90727188
      0.16000000	     -2.80652008	     -7.36003075	      3.82261155	     -1.06636822	      0.97739834	     -0.26719158	      5.77830711	      7.17241661	     -5.35583605	    -15.00662124	     10.02081579	     -0.50001085	      3.18661199	     -7.58318408	      5.88985057	     -8.74247609	     11.37550245	     -1.46583013	      2.15420837	      6.98044287	     -6.91208127
